#N canvas -8 0 958 966 12;
#X floatatom 118 19 5 0 0 0 - - -;
#X obj 118 42 phasor~;
#X obj 118 66 expr~ $v1 * 2 - 1;
#X obj 118 157 lop~ 1000;
#X obj 118 209 *~;
#X obj 118 256 dac~;
#X floatatom 203 191 5 0 1 0 - - -;
#X floatatom 178 131 5 0 0 0 - - -;
#X obj 181 107 hsl 128 15 1 10000 1 0 empty empty cutoff -2 -8 0 10
-262144 -1 -1 3500 1;
#X connect 0 0 1 0;
#X connect 1 0 2 0;
#X connect 2 0 3 0;
#X connect 3 0 4 0;
#X connect 4 0 5 0;
#X connect 6 0 4 1;
#X connect 7 0 3 1;
#X connect 8 0 7 0;
