#N canvas -8 0 958 966 12;
#X floatatom 167 67 5 0 0 0 - - -;
#X obj 167 98 select 97 122 101 114 116 121 117 105 111 112 94 36 113
115 100 102 103 104 106 107 108 109 249 42;
#X obj 362 413 *~;
#X msg 7 186 60;
#X msg 37 186 61;
#X msg 67 186 62;
#X msg 96 186 63;
#X msg 126 186 64;
#X msg 156 186 65;
#X msg 186 186 66;
#X msg 215 186 67;
#X msg 245 186 68;
#X msg 274 186 69;
#X msg 303 186 70;
#X msg 332 186 71;
#X msg 361 186 72;
#X msg 390 186 73;
#X msg 419 186 74;
#X msg 449 186 75;
#X msg 478 186 76;
#X msg 507 186 77;
#X msg 536 186 78;
#X msg 566 186 79;
#X msg 595 186 80;
#X msg 624 186 81;
#X msg 653 186 82;
#X msg 683 186 83;
#X obj 361 332 mtof;
#X obj 361 356 osc~;
#X obj 399 356 select 32;
#X obj 399 385 tgl 15 0 empty empty empty 17 7 0 10 -262144 -1 -1 0
1;
#X obj 167 29 inlet;
#X obj 399 332 inlet;
#X obj 363 457 outlet~;
#X connect 0 0 1 0;
#X connect 1 0 3 0;
#X connect 1 1 4 0;
#X connect 1 2 5 0;
#X connect 1 3 6 0;
#X connect 1 4 7 0;
#X connect 1 5 8 0;
#X connect 1 6 9 0;
#X connect 1 7 10 0;
#X connect 1 8 11 0;
#X connect 1 9 12 0;
#X connect 1 10 13 0;
#X connect 1 11 14 0;
#X connect 1 12 15 0;
#X connect 1 13 16 0;
#X connect 1 14 17 0;
#X connect 1 15 18 0;
#X connect 1 16 19 0;
#X connect 1 17 20 0;
#X connect 1 18 21 0;
#X connect 1 19 22 0;
#X connect 1 20 23 0;
#X connect 1 21 24 0;
#X connect 1 22 25 0;
#X connect 1 23 26 0;
#X connect 2 0 33 0;
#X connect 3 0 27 0;
#X connect 4 0 27 0;
#X connect 5 0 27 0;
#X connect 6 0 27 0;
#X connect 7 0 27 0;
#X connect 8 0 27 0;
#X connect 9 0 27 0;
#X connect 10 0 27 0;
#X connect 11 0 27 0;
#X connect 12 0 27 0;
#X connect 13 0 27 0;
#X connect 14 0 27 0;
#X connect 15 0 27 0;
#X connect 16 0 27 0;
#X connect 17 0 27 0;
#X connect 18 0 27 0;
#X connect 19 0 27 0;
#X connect 20 0 27 0;
#X connect 21 0 27 0;
#X connect 22 0 27 0;
#X connect 23 0 27 0;
#X connect 24 0 27 0;
#X connect 25 0 27 0;
#X connect 26 0 27 0;
#X connect 27 0 28 0;
#X connect 28 0 2 0;
#X connect 29 0 30 0;
#X connect 30 0 2 1;
#X connect 31 0 0 0;
#X connect 32 0 29 0;
