#N canvas 876 88 958 966 12;
#X obj 28 138 mtof;
#X obj 4 89 bng 15 250 50 0 empty empty empty 17 7 0 10 -262144 -1
-1;
#X floatatom 28 162 5 0 0 0 - - -;
#X obj 28 86 random 24;
#X obj 28 112 + 60;
#X obj 28 59 metro 0.25 98 permin;
#X msg 28 32 tempo \$1 permin;
#X obj 28 5 inlet;
#X obj 28 186 outlet;
#X connect 0 0 2 0;
#X connect 2 0 8 0;
#X connect 3 0 4 0;
#X connect 4 0 0 0;
#X connect 5 0 1 0;
#X connect 5 0 3 0;
#X connect 6 0 5 0;
#X connect 7 0 6 0;
