#N canvas -8 0 958 966 12;
#X obj 334 186 tgl 15 0 empty empty empty 17 7 0 10 -262144 -1 -1 0
1;
#X obj 335 347 mtof;
#X obj 335 424 osc~;
#X obj 335 486 *~;
#X obj 335 510 dac~;
#X obj 294 238 bng 15 250 50 0 empty empty empty 17 7 0 10 -262144
-1 -1;
#X floatatom 388 445 5 0 0 0 - - -;
#X floatatom 335 387 5 0 0 0 - - -;
#X obj 335 323 + 60;
#X obj 334 235 random 12;
#X obj 334 211 metro 100;
#X connect 0 0 10 0;
#X connect 1 0 7 0;
#X connect 2 0 3 0;
#X connect 3 0 4 0;
#X connect 6 0 3 1;
#X connect 7 0 2 0;
#X connect 8 0 1 0;
#X connect 9 0 8 0;
#X connect 10 0 5 0;
#X connect 10 0 9 0;
