#N canvas 952 42 958 966 12;
#X obj 71 74 *~;
#X obj 156 110 delwrite~ audio-buffer 5000;
#X obj 285 215 delread~ audio-buffer 0;
#X obj 207 274 *~;
#X floatatom 285 186 5 0 0 0 - - -;
#X obj 299 249 *~;
#X obj 178 77 receive~ feedback-signal;
#X obj 299 273 send~ feedback-signal;
#X obj 206 186 rev1~;
#X floatatom 222 158 5 0 0 0 - - -;
#X obj 17 218 *~;
#X obj 96 187 expr~ 1 - $v1;
#X obj 185 227 *~;
#X obj 72 12 inlet~;
#X obj 184 355 outlet~;
#X obj 89 45 inlet;
#X obj 96 155 inlet;
#X obj 285 157 inlet;
#X obj 240 274 inlet;
#X obj 332 249 inlet;
#X connect 0 0 8 0;
#X connect 0 0 10 0;
#X connect 0 0 1 0;
#X connect 2 0 3 0;
#X connect 2 0 5 0;
#X connect 3 0 14 0;
#X connect 4 0 2 0;
#X connect 5 0 7 0;
#X connect 6 0 1 0;
#X connect 8 0 12 0;
#X connect 9 0 8 1;
#X connect 10 0 14 0;
#X connect 11 0 12 1;
#X connect 12 0 14 0;
#X connect 13 0 0 0;
#X connect 15 0 0 1;
#X connect 16 0 10 1;
#X connect 16 0 11 0;
#X connect 17 0 4 0;
#X connect 18 0 3 1;
#X connect 19 0 5 1;
