#N canvas -8 0 958 966 12;
#X floatatom 167 67 5 0 0 0 - - -;
#X obj 167 98 select 97 122 101 114 116 121 117 105 111 112 94 36 113
115 100 102 103 104 106 107 108 109 249 42;
#X msg 7 186 60;
#X msg 37 186 61;
#X msg 67 186 62;
#X msg 96 186 63;
#X msg 126 186 64;
#X msg 156 186 65;
#X msg 186 186 66;
#X msg 215 186 67;
#X msg 245 186 68;
#X msg 274 186 69;
#X msg 303 186 70;
#X msg 332 186 71;
#X msg 361 186 72;
#X msg 390 186 73;
#X msg 419 186 74;
#X msg 449 186 75;
#X msg 478 186 76;
#X msg 507 186 77;
#X msg 536 186 78;
#X msg 566 186 79;
#X msg 595 186 80;
#X msg 624 186 81;
#X msg 653 186 82;
#X msg 683 186 83;
#X obj 361 332 mtof;
#X obj 167 29 inlet;
#X obj 361 356 outlet;
#X connect 0 0 1 0;
#X connect 1 0 2 0;
#X connect 1 1 3 0;
#X connect 1 2 4 0;
#X connect 1 3 5 0;
#X connect 1 4 6 0;
#X connect 1 5 7 0;
#X connect 1 6 8 0;
#X connect 1 7 9 0;
#X connect 1 8 10 0;
#X connect 1 9 11 0;
#X connect 1 10 12 0;
#X connect 1 11 13 0;
#X connect 1 12 14 0;
#X connect 1 13 15 0;
#X connect 1 14 16 0;
#X connect 1 15 17 0;
#X connect 1 16 18 0;
#X connect 1 17 19 0;
#X connect 1 18 20 0;
#X connect 1 19 21 0;
#X connect 1 20 22 0;
#X connect 1 21 23 0;
#X connect 1 22 24 0;
#X connect 1 23 25 0;
#X connect 2 0 26 0;
#X connect 3 0 26 0;
#X connect 4 0 26 0;
#X connect 5 0 26 0;
#X connect 6 0 26 0;
#X connect 7 0 26 0;
#X connect 8 0 26 0;
#X connect 9 0 26 0;
#X connect 10 0 26 0;
#X connect 11 0 26 0;
#X connect 12 0 26 0;
#X connect 13 0 26 0;
#X connect 14 0 26 0;
#X connect 15 0 26 0;
#X connect 16 0 26 0;
#X connect 17 0 26 0;
#X connect 18 0 26 0;
#X connect 19 0 26 0;
#X connect 20 0 26 0;
#X connect 21 0 26 0;
#X connect 22 0 26 0;
#X connect 23 0 26 0;
#X connect 24 0 26 0;
#X connect 25 0 26 0;
#X connect 26 0 28 0;
#X connect 27 0 0 0;
