#N canvas 0 50 450 300 12;
#X obj 9 158 noise~;
#X obj 9 182 hip~ 20000;
#X obj 9 206 hip~ 10000;
#X obj 100 248 *~;
#X obj 100 272 outlet~;
#X obj 46 6 inlet;
#X obj 46 38 bng 15 250 50 0 empty empty empty 17 7 0 10 -262144 -1
-1;
#X obj 46 58 f;
#X obj 46 82 t f b;
#X obj 117 144 *;
#X msg 117 168 \$1 \, 0 40 1;
#X obj 117 192 vline~;
#X obj 135 63 random 10;
#X obj 135 87 / 20;
#X obj 135 111 + 0.7;
#X obj 103 6 inlet;
#X connect 0 0 1 0;
#X connect 1 0 2 0;
#X connect 2 0 3 0;
#X connect 3 0 4 0;
#X connect 5 0 6 0;
#X connect 6 0 7 0;
#X connect 7 0 8 0;
#X connect 8 0 9 0;
#X connect 8 1 12 0;
#X connect 9 0 10 0;
#X connect 10 0 11 0;
#X connect 11 0 3 1;
#X connect 12 0 13 0;
#X connect 13 0 14 0;
#X connect 14 0 9 1;
#X connect 15 0 7 1;
