#N canvas 218 134 450 300 12;
#X obj 8 8 inlet;
#X obj 8 35 tgl 15 0 empty empty empty 17 7 0 10 -262144 -1 -1 0 1
;
#X obj 8 89 metro 0.25 120 permin;
#X obj 8 138 f;
#X obj 8 165 % 16;
#X obj 8 189 outlet;
#X obj 60 8 inlet;
#X floatatom 60 32 5 10 200 1 BPM - -;
#X msg 60 55 tempo \$1 permin;
#X obj 40 138 + 1;
#X obj 8 55 t f b;
#X msg 41 112 0;
#X connect 0 0 1 0;
#X connect 1 0 10 0;
#X connect 2 0 3 0;
#X connect 3 0 4 0;
#X connect 3 0 9 0;
#X connect 4 0 5 0;
#X connect 6 0 7 0;
#X connect 7 0 8 0;
#X connect 8 0 2 0;
#X connect 9 0 3 1;
#X connect 10 0 2 0;
#X connect 11 0 3 1;
