#N canvas 876 88 958 966 12;
#X obj 28 157 mtof;
#X obj 4 108 bng 15 250 50 0 empty empty empty 17 7 0 10 -262144 -1
-1;
#X floatatom 28 181 5 0 0 0 - - -;
#X obj 28 105 random 24;
#X obj 28 131 + 60;
#X msg 88 51 tempo \$1 permin;
#X obj 88 5 inlet;
#X obj 28 205 outlet;
#X obj 28 5 inlet;
#X obj 28 30 tgl 15 0 empty empty empty 17 7 0 10 -262144 -1 -1 0 1
;
#X obj 28 52 t f b;
#X obj 28 78 metro 0.25 120 permin;
#X connect 0 0 2 0;
#X connect 2 0 7 0;
#X connect 3 0 4 0;
#X connect 4 0 0 0;
#X connect 5 0 11 0;
#X connect 6 0 5 0;
#X connect 8 0 9 0;
#X connect 9 0 10 0;
#X connect 10 0 11 0;
#X connect 11 0 1 0;
#X connect 11 0 3 0;
